<svg width="140" height="140" viewBox="0 0 140 140" fill="none" xmlns="http://www.w3.org/2000/svg">
<rect x="1" y="1" width="128" height="128" stroke="black" stroke-width="2"/>
<rect x="11" y="11" width="128" height="128" stroke="black" stroke-width="2"/>
<path d="M72.24 35.2C82.24 35.2 89.36 39.2 94.16 47.84L88 51.92C83.92 44.16 78.16 41.76 72.24 41.76C62.88 41.76 53.52 46.72 53.52 64C53.52 81.28 62.88 86.24 72.24 86.24C78.16 86.24 83.92 83.92 88 75.84L94.08 80.16C89.52 88.56 82.24 92.8 72.24 92.8C55.28 92.8 45.6 82.56 45.6 64C45.6 45.44 55.28 35.2 72.24 35.2Z" fill="black"/>
</svg>
